<svg id="Layer_2" data-name="Layer 2" xmlns="http://www.w3.org/2000/svg" viewBox="0 0 470.34 137.89"><defs><style>.cls-1{fill:none;stroke:black;stroke-miterlimit:10;stroke-width:6px;}</style></defs><path class="cls-1" d="M149.88,101.16l-9.6,2.76L138.45,107l5,6.7,9.58-2.36s1.18,4.5,5.39,3.15,24.1-6.07,24.1-6.07c1.84,2.87,10.78,4.52,14.47,3.9C232.51,104,376.45,72.78,405.43,61.15c0-6-3.28-22.84-6.68-28.26-.85-.5-17.21,2.11-18.68,2-9.68.32-177.27,42.92-191,46.17a26.72,26.72,0,0,0-6.94,4.69c-2.34,2.43-1.69,2.56-3.15,5.39-.54,1-26.11,6.64-26.11,6.64Z"/></svg>