<svg id="Layer_1" data-name="Layer 1" xmlns="http://www.w3.org/2000/svg" viewBox="0 0 273.58 87.96"><defs><style>.cls-1{fill:none;stroke:#1b1464;stroke-miterlimit:10;stroke-width:6px;}</style></defs><path class="cls-1" d="M178.57,327.44,169,330.2l-1.83,3.11,5,6.71,9.58-2.36s1.17,4.49,5.38,3.15,24.11-6.07,24.11-6.07c1.84,2.86,10.78,4.52,14.46,3.9,35.53-8.38,179.47-39.59,208.45-51.21,0-6-3.29-22.84-6.68-28.26-.85-.5-17.22,2.1-18.68,2-9.69.32-177.28,42.92-191,46.17A26.57,26.57,0,0,0,210.8,312c-2.35,2.43-1.7,2.56-3.16,5.39-.54,1.05-26.11,6.64-26.11,6.64Z" transform="translate(-163.55 -256.11)"/></svg>