<svg id="Layer_1" data-name="Layer 1" xmlns="http://www.w3.org/2000/svg" viewBox="0 0 32.53 24.33"><defs><style>.cls-1{fill:none;stroke:#65c8d0;stroke-miterlimit:10;}</style></defs><path class="cls-1" d="M4.06,13.52c.16-.17.07-.49.34-.76A.84.84,0,0,1,5,12.55L6.91,8.67s0-.22.37-.26,5-1,5.16-1a2.25,2.25,0,0,1,.9.2c.31.19,21.59,14.17,21.59,14.17s.64.67.63.86l0,.2-1.93,4s0,.39,0,.51-.13.13-.19.42a1.06,1.06,0,0,1-.29.62c-.18.19-1,.4-1.25.6s-1,.43-1.43.74a8.6,8.6,0,0,1-1.67.91,1.55,1.55,0,0,1-1.21-.06c-.47-.19-5.32-3.52-5.45-3.74A4.81,4.81,0,0,0,20.8,26a8.32,8.32,0,0,1-1.88-1.06A12.39,12.39,0,0,0,17.54,24c-.38-.3-.54-.7-1-1a7.6,7.6,0,0,1-1.74-1.12c-.15-.27-.72-.5-1-.71s0-.12-.52-.49-1.36-.89-1.36-.89l-.49-.39-.63-.27a1.79,1.79,0,0,0-.6-.33,1.55,1.55,0,0,1-.7-.61l-.42-.28-.66-.44L7.83,17a5.09,5.09,0,0,0-.41-.31c-.21-.14-1-.73-1-.73a3.41,3.41,0,0,0-.35-.25c-.28-.17-.67-.36-.67-.36A1.34,1.34,0,0,1,4.81,15a2.45,2.45,0,0,0-.31-.19l-.11-.17S3.9,13.68,4.06,13.52Z" transform="translate(-3.53 -6.96)"/><path class="cls-1" d="M10.49,9.82l2.42-.51a4.87,4.87,0,0,1,.94.17L32.36,21.69a.29.29,0,0,1-.06.52L30.06,23a5.91,5.91,0,0,1-1.12-.13L10.79,10.62C10.57,10.48,10.24,9.88,10.49,9.82Z" transform="translate(-3.53 -6.96)"/><path class="cls-1" d="M5.21,12.62l22.2,15.24c1.07.52,1.08.74,2.38.24l3.93-1.77" transform="translate(-3.53 -6.96)"/></svg>