<svg id="Layer_1" data-name="Layer 1" xmlns="http://www.w3.org/2000/svg" viewBox="0 0 280.06 127.68"><defs><style>.cls-1,.cls-2{fill:none;stroke:#65c8d0;stroke-miterlimit:10;}.cls-1{stroke-width:6px;}.cls-2{stroke-width:4px;}</style></defs><path class="cls-1" d="M163.86,317.06c.61-1.8-1.3-3.9-.2-6.9a6.83,6.83,0,0,1,4.11-3.91v-36s-.6-1.8,1.8-3.3,34.54-25.53,35.44-25.83,4.5-2.1,7.51-1.8,214.13,28.53,214.13,28.53,7.21,2.7,7.81,4.21l.6,1.5v37.24s1.38,3,1.68,3.89-.48,1.51.12,3.92.73,3.6.07,5.7-6.07,6.61-7.28,9-6,6.91-8.1,10.81A71.43,71.43,0,0,1,412.24,357c-2.71,2.7-5.11,3.6-9.31,3.9s-52.86-7.21-54.66-8.41-9.61-2.4-13.22-2.4-14.41.3-18-1.2-9.91-1.2-13.81-2.1-6.61-3.31-11.42-3.61-15-.6-17.11-2.1-7.21-1.2-9.92-1.8-.6-.9-5.7-1.8-13.52-1.8-13.52-1.8l-5.1-1.21s-4.51.3-5.71.3-2.4-.9-5.7-.3-7.51-2.1-7.51-2.1l-4.21-.6-6.6-.9L205,330a36.12,36.12,0,0,0-4.21-.9c-2.1-.3-10.21-1.8-10.21-1.8a29,29,0,0,0-3.6-.6c-2.7-.3-6.31-.3-6.31-.3-2.1.6-4.2-.31-5.7-.61a17.58,17.58,0,0,0-3-.3l-1.5-.9S163.26,318.87,163.86,317.06Z" transform="translate(-160.31 -236.25)"/><path class="cls-2" d="M198.91,265.94l16.37-12.68a43.67,43.67,0,0,1,7.72-2.12l183.71,24.91a2.42,2.42,0,0,1,1.42,4.12l-14,14c-.53.53-8.21,3.15-9,3.06l-181.1-26.41C201.91,270.56,197.2,267.26,198.91,265.94Z" transform="translate(-160.31 -236.25)"/><path class="cls-2" d="M169.24,306.17l222.54,34.34c10,0,10.84,1.64,18.84-6.84l23.21-27.57" transform="translate(-160.31 -236.25)"/></svg>