<svg id="Layer_1" data-name="Layer 1" xmlns="http://www.w3.org/2000/svg" viewBox="0 0 323 240.62"><defs><style>.cls-1,.cls-2{fill:none;stroke:#65c8d0;stroke-miterlimit:10;}.cls-1{stroke-width:6px;}.cls-2{stroke-width:4px;}</style></defs><path class="cls-1" d="M142,243.26c1.59-1.64.62-4.9,3.38-7.58a8.21,8.21,0,0,1,6.48-2.1l18.79-39s.29-2.27,3.67-2.64,50.73-9.66,51.87-9.51,6,.07,9.07,2S452.35,326.89,452.35,326.89s6.4,6.69,6.27,8.63l-.13,1.94-19.41,40.35s-.07,4-.21,5.1-1.31,1.38-1.91,4.3-1.09,4.28-2.91,6.21-10,4-12.57,6-10.11,4.36-14.43,7.49A85.16,85.16,0,0,1,390.23,416c-4.33,1.52-7.41,1.24-12.12-.62S324.6,380,323.27,377.79s-9.16-7.61-13.06-9.49-15.78-7.19-18.9-10.7-10.11-6.46-13.88-9.48-5.43-7-10.48-9.85-16-8.48-17.45-11.2-7.19-5.06-9.8-7.12-.18-1.29-5.25-4.93-13.7-9-13.7-9l-4.91-4s-5-2-6.34-2.65-2.13-2.23-6-3.3-7-6.19-7-6.19l-4.24-2.84-6.69-4.42-5.72-4a42.88,42.88,0,0,0-4.08-3.17c-2.12-1.42-10.13-7.28-10.13-7.28a36.11,36.11,0,0,0-3.59-2.53c-2.77-1.73-6.68-3.61-6.68-3.61-2.59-.45-4.39-2.52-5.87-3.63a21.91,21.91,0,0,0-3.09-1.89l-1.16-1.76S140.36,244.9,142,243.26Z" transform="translate(-138.62 -179.38)"/><path class="cls-2" d="M206.57,206.13l24.34-5.19a52.26,52.26,0,0,1,9.47,1.72L426.45,325.42a2.91,2.91,0,0,1-.61,5.2l-22.51,7.89c-.85.29-10.53-.87-11.29-1.36l-182.45-123C207.41,212.71,204,206.68,206.57,206.13Z" transform="translate(-138.62 -179.38)"/><path class="cls-2" d="M153.45,234.26,376.67,387.48c10.83,5.21,10.89,7.42,24,2.41l39.53-17.77" transform="translate(-138.62 -179.38)"/></svg>