<svg id="Layer_1" data-name="Layer 1" xmlns="http://www.w3.org/2000/svg" viewBox="0 0 165.1 180.17"><defs><style>.cls-1{fill:none;stroke:#1b1464;stroke-miterlimit:10;stroke-width:6px;}</style></defs><path class="cls-1" d="M272.15,386.85c-9.87,0-27.09-7.82-31.52-15.9s-9.87-31-10.55-39.35-1.36-19.8-1.7-23.45c-1.89-20.23-4.77-34.4-4.77-34.4-2.58-14.28-5.08-23.74.71-26.63,5.34-2.23,9.63-.6,13.23,13.95,1.54,6.58,6.46,31.86,8.36,35.24a4.44,4.44,0,0,0,2.55,2.2c2.91,1.06,4.09-2.27,4.39-3.51,2-7.11,1-57.67,1.14-63.71.22-10.93,6.6-13.48,12.91-10.07,4.26,2.3,4.35,7.49,4.37,10.05.36,41.63,2.29,47.44,2.51,50,.34,3.93,3,5.15,3.66,3.16,1-3.14,1.3-8.64,1.46-10,1.47-11.69,4.7-54.36,11.05-59.73,3.32-2.81,8.65-1.84,10.89.15,3.18,2.9,2.88,7,2.77,8.55-1.17,16.92-10.8,64.05-7.54,65.74,1.9,1,7.2,1.57,7.62-1.37.6-2.6,19.75-51.31,21.39-54.15,7.66-13.28,18.83-8,14.4,7.89s-14.94,48-15.44,54.92c-.15,2-.5,9.3-.5,9.3h0a75.09,75.09,0,0,0,.36,12.53c.5,4.16.78,6.25,2,6.63,3.28,1.06,10.5-6.31,16.43-12.36s5.85-7,10.21-10.42c4.59-3.58,8.81-6.78,15.32-7.3,1-.08,9.29-.75,11.58,2.34,2.89,3.92-7.11,9.51-18.39,25.28a133.69,133.69,0,0,0-9.53,15.64c-6.21,11.75-6.33,15.94-12.93,24.23C323.29,382.45,295,388.73,272.15,386.85Z" transform="translate(-217.79 -210)"/></svg>