<svg id="Layer_1" data-name="Layer 1" xmlns="http://www.w3.org/2000/svg" viewBox="0 0 165.1 181.32"><defs><style>.cls-1{fill:none;stroke:#65c8d0;stroke-miterlimit:10;stroke-width:6px;}</style></defs><path class="cls-1" d="M272.15,387.43c-9.87,0-27.09-7.82-31.52-15.9s-9.87-31-10.55-39.35-1.36-19.81-1.7-23.46c-1.89-20.22-4.77-34.39-4.77-34.4-2.58-14.27-5.08-23.73.71-26.62,5.34-2.23,9.63-.61,13.23,13.95,1.54,6.57,6.46,31.86,8.36,35.24a4.44,4.44,0,0,0,2.55,2.19c2.91,1.06,4.09-2.27,4.39-3.51,2-7.1.74-57.68,1.14-63.7a15.55,15.55,0,0,1,1.28-5c1.07-2.54,2-4.81,4.64-5.73a9.53,9.53,0,0,1,7,.62c4.31,2.21,4.35,7.5,4.37,10.06.36,41.62,2.51,50,2.13,52.57a4.9,4.9,0,0,0,.26,2.41c.1.38.14.43.2.44.65.09,2.64-6.14,3.27-8.13,1-3.14,1.92-6.36,2.23-7.67,2.47-10.35,2.4-50.08,7.91-56.3a8.52,8.52,0,0,1,4.33-2.63c3.18-.56,7,1,9.24,2.93,3.18,2.91,2.88,7,2.77,8.56-1.17,16.92-10.8,64-7.54,65.74,1.9,1,7.2,1.57,7.62-1.37.6-2.61,21.37-59.94,24.09-61.76s6.13-2.87,8.51-.79,7.49,3.91,3.07,19.81-8.51,28.93-9.87,33.88c-1.6,5.79-4.95,10.62-5.45,17.51-.15,2-.5,9.3-.5,9.3h0a75.21,75.21,0,0,0,.36,12.54c.5,4.16.78,6.25,2,6.62,3.28,1.06,10.5-6.31,16.43-12.36s5.85-7,10.21-10.42c4.59-3.58,8.81-6.77,15.32-7.3,1-.07,9.29-.74,11.58,2.35,2.89,3.91-7.11,9.51-18.39,25.28a132.94,132.94,0,0,0-9.53,15.63c-6.21,11.76-6.33,15.95-12.93,24.24C323.29,383,295,389.3,272.15,387.43Z" transform="translate(-217.79 -209.43)"/></svg>