<svg id="Layer_1" data-name="Layer 1" xmlns="http://www.w3.org/2000/svg" viewBox="0 0 190.51 167.09"><defs><style>.cls-1{fill:none;stroke:#65c8d0;stroke-miterlimit:10;stroke-width:6px;}</style></defs><path class="cls-1" d="M215.46,217.06S214.17,253,222,265.5c18.51,34.32,66.45,39.8,92.67,36l-.2-33.82s2.67-4.8,7.16-3.63S392,318.37,392,318.37s2.71,3.28,0,6.29-67.9,54.25-67.9,54.25a5.49,5.49,0,0,1-5.38,1.53c-3.3-.88-2.71-2.38-3.32-5.37s-.79-32.31-.79-32.31-40.09.53-59.29-7.74-32.12-16.87-41.49-33.27S209.66,249.71,215.46,217.06Z" transform="translate(-205.7 -216.54)"/></svg>