<svg id="Layer_1" data-name="Layer 1" xmlns="http://www.w3.org/2000/svg" viewBox="0 0 200.37 207.43"><defs><style>.cls-1{fill:none;stroke:#65c8d0;stroke-miterlimit:10;stroke-width:6px;}</style></defs><path class="cls-1" d="M380.33,265.72c-3.28-17.61-7.75-27.46-12.83-32.53-5.37-5.07-10.14-6.57-30.44-6.57H322.44v131.9c0,22.68,2.69,24.77,31.93,26.56v16.11H247.84V385.08c28-1.79,30.74-3.88,30.74-26.56V226.62H263.66c-23.28,0-29,3.29-33.43,10.15-3.88,6.27-6.86,14.62-10.74,29H203.08c1.79-26.56,3-44.76,3.58-66h12.23c3.88,6.86,6.87,7.46,16.12,7.46H364.52c8.65,0,12.83-1.79,17-7.46h11.64c.29,12.53,2.38,42.67,3.87,65Z" transform="translate(-199.87 -196.77)"/></svg>