<svg id="Layer_1" data-name="Layer 1" xmlns="http://www.w3.org/2000/svg" viewBox="0 0 193.16 160.67"><defs><style>.cls-1{fill:none;stroke:#65c8d0;stroke-miterlimit:10;stroke-width:6px;}</style></defs><path class="cls-1" d="M390,380.07s-.76-35.93-9.32-48c-20.45-33.2-68.62-35.93-94.58-30.6l2.13,33.74s-2.38,4.95-6.94,4S208,289,208,289s-2.89-3.11-.39-6.27S272.3,224.7,272.3,224.7a5.48,5.48,0,0,1,5.28-1.83c3.34.68,2.84,2.22,3.63,5.16s2.63,32.22,2.63,32.22,40-2.83,59.64,4.33,33,15,43.32,30.84S394,347.14,390,380.07Z" transform="translate(-203.59 -219.75)"/></svg>